<svg width="24" height="25" viewBox="0 0 24 25" fill="none" xmlns="http://www.w3.org/2000/svg">
<path fill-rule="evenodd" clip-rule="evenodd" d="M14.6009 4.7125C14.7414 4.85313 14.8203 5.04375 14.8203 5.2425C14.8203 5.44125 14.7414 5.63188 14.6009 5.7725L8.23693 12.1365C8.21365 12.1597 8.19518 12.1873 8.18258 12.2177C8.16997 12.2481 8.16349 12.2806 8.16349 12.3135C8.16349 12.3464 8.16997 12.3789 8.18258 12.4093C8.19518 12.4397 8.21365 12.4673 8.23693 12.4905L14.6009 18.8545C14.7334 18.9967 14.8055 19.1847 14.8021 19.379C14.7987 19.5733 14.72 19.7587 14.5826 19.8961C14.4451 20.0335 14.2598 20.1123 14.0655 20.1157C13.8712 20.1191 13.6831 20.047 13.5409 19.9145L7.17693 13.5525C7.01441 13.39 6.88549 13.1971 6.79753 12.9847C6.70958 12.7724 6.66431 12.5448 6.66431 12.315C6.66431 12.0852 6.70958 11.8576 6.79753 11.6453C6.88549 11.4329 7.01441 11.24 7.17693 11.0775L13.5399 4.7125C13.6806 4.57205 13.8712 4.49316 14.0699 4.49316C14.2687 4.49316 14.4603 4.57205 14.6009 4.7125Z" fill="black"/>
</svg>
