<svg width="32" height="32" viewBox="0 0 32 32" fill="none" xmlns="http://www.w3.org/2000/svg">
<g clip-path="url(#clip0_336_1636)">
<path d="M19.6667 8.16663H11.3333C6.73095 8.16663 3 11.8976 3 16.5C3 21.1023 6.73095 24.8333 11.3333 24.8333H19.6667C24.2691 24.8333 28 21.1023 28 16.5C28 11.8976 24.2691 8.16663 19.6667 8.16663ZM5.77778 16.5C5.77778 13.4296 8.26254 10.9444 11.3333 10.9444C14.4037 10.9444 16.8889 13.4292 16.8889 16.5C16.8889 19.5703 14.4041 22.0555 11.3333 22.0555C8.26298 22.0555 5.77778 19.5707 5.77778 16.5ZM19.6667 22.0555H17.5441C20.3747 18.8933 20.3755 14.1076 17.5441 10.9444H19.6667C22.737 10.9444 25.2222 13.4292 25.2222 16.5C25.2222 19.5703 22.7375 22.0555 19.6667 22.0555Z" fill="#4F72F3"/>
</g>
<defs>
<clipPath id="clip0_336_1636">
<rect width="25" height="25" fill="white" transform="translate(3 4)"/>
</clipPath>
</defs>
</svg>
