<svg width="24" height="25" viewBox="0 0 24 25" fill="none" xmlns="http://www.w3.org/2000/svg">
<path fill-rule="evenodd" clip-rule="evenodd" d="M9.39895 19.7719C9.2585 19.6312 9.17961 19.4406 9.17961 19.2419C9.17961 19.0431 9.2585 18.8525 9.39895 18.7119L15.7629 12.3479C15.7862 12.3246 15.8047 12.2971 15.8173 12.2667C15.8299 12.2363 15.8364 12.2038 15.8364 12.1709C15.8364 12.138 15.8299 12.1054 15.8173 12.0751C15.8047 12.0447 15.7862 12.0171 15.7629 11.9939L9.39894 5.62987C9.26646 5.4877 9.19434 5.29965 9.19777 5.10535C9.2012 4.91105 9.27991 4.72566 9.41732 4.58825C9.55474 4.45084 9.74012 4.37213 9.93442 4.3687C10.1287 4.36527 10.3168 4.43739 10.4589 4.56987L16.8229 10.9319C16.9855 11.0944 17.1144 11.2873 17.2023 11.4996C17.2903 11.712 17.3356 11.9395 17.3356 12.1694C17.3356 12.3992 17.2903 12.6268 17.2023 12.8391C17.1144 13.0514 16.9855 13.2444 16.8229 13.4069L10.4599 19.7719C10.3193 19.9123 10.1287 19.9912 9.92995 19.9912C9.73119 19.9912 9.53957 19.9123 9.39895 19.7719Z" fill="black"/>
</svg>
