<svg width="24" height="24" viewBox="0 0 24 24" fill="none" xmlns="http://www.w3.org/2000/svg">
<circle cx="12" cy="12" r="12" fill="#FEE500"/>
<path d="M12.0347 5.79199C8.30125 5.79199 5.29041 8.20064 5.29041 11.1248C5.29041 13.0228 6.54292 14.6848 8.42169 15.6338L7.7858 18.0088C7.77381 18.0444 7.77196 18.0826 7.78047 18.1192C7.78898 18.1558 7.8075 18.1893 7.83397 18.2159C7.87256 18.2499 7.92222 18.2688 7.97367 18.2689C8.01634 18.2655 8.05681 18.2486 8.08929 18.2207L10.8255 16.3757C11.2295 16.4315 11.6366 16.4604 12.0443 16.4624C15.773 16.4624 18.7886 14.0537 18.7886 11.1248C18.7886 8.19583 15.7633 5.79199 12.0347 5.79199Z" fill="#392020"/>
<path d="M7.65068 10.282H6.91362C6.82227 10.2847 6.73205 10.2613 6.65349 10.2146C6.61861 10.1927 6.58862 10.1639 6.56541 10.1299C6.5422 10.0959 6.52626 10.0575 6.5186 10.017C6.51626 9.9914 6.51626 9.96564 6.5186 9.94C6.51631 9.89203 6.52562 9.84418 6.54575 9.80058C6.56588 9.75697 6.59622 9.71888 6.63422 9.68949C6.7182 9.62867 6.81957 9.59654 6.92326 9.59793H9.14406C9.23614 9.5947 9.32698 9.61994 9.4042 9.6702C9.4399 9.69109 9.47052 9.71967 9.49384 9.75383C9.51717 9.78798 9.53262 9.82688 9.53908 9.86773C9.54143 9.89176 9.54143 9.91598 9.53908 9.94C9.54135 9.98867 9.53206 10.0372 9.51197 10.0816C9.49187 10.1259 9.46154 10.1649 9.42347 10.1953C9.34153 10.256 9.24114 10.2867 9.13924 10.282H8.42627V12.816C8.42917 12.8699 8.42081 12.9239 8.40174 12.9745C8.38267 13.0251 8.35329 13.0712 8.31547 13.1098C8.27921 13.1467 8.23562 13.1757 8.1875 13.1948C8.13938 13.2139 8.08779 13.2226 8.03607 13.2206C7.94559 13.2232 7.85704 13.1943 7.78556 13.1387C7.71752 13.0845 7.67133 13.0075 7.6555 12.9219C7.65074 12.8868 7.65074 12.8511 7.6555 12.816L7.65068 10.282Z" fill="#FEE500"/>
<path d="M9.75174 9.78514C9.77293 9.70586 9.82269 9.63722 9.89144 9.59243C9.96471 9.55091 10.0482 9.53087 10.1323 9.53462H10.3154C10.4046 9.53143 10.493 9.55311 10.5707 9.59725C10.653 9.65259 10.7114 9.73685 10.7345 9.8333L11.698 12.5551C11.7229 12.6261 11.7438 12.6985 11.7606 12.7719C11.7622 12.8024 11.7622 12.8329 11.7606 12.8634C11.7622 12.9104 11.7536 12.9571 11.7353 13.0004C11.717 13.0437 11.6894 13.0824 11.6546 13.1139C11.6208 13.1485 11.5803 13.1758 11.5356 13.194C11.4908 13.2123 11.4428 13.2211 11.3945 13.2199C11.3202 13.2273 11.2455 13.2095 11.1826 13.1693C11.1197 13.1291 11.0721 13.0689 11.0476 12.9983L10.8453 12.4058H9.57832L9.37599 12.9983C9.35206 13.0703 9.30393 13.1316 9.2398 13.172C9.17568 13.2125 9.09952 13.2294 9.02432 13.2199C8.94286 13.222 8.86307 13.1966 8.7979 13.1476C8.73442 13.0972 8.69158 13.0252 8.67747 12.9454C8.67491 12.9181 8.67491 12.8907 8.67747 12.8634C8.6692 12.8156 8.6692 12.7668 8.67747 12.7189C8.67747 12.666 8.71119 12.6081 8.73046 12.5551L9.75174 9.78514ZM10.2335 10.4162L9.77583 11.8614H10.6863L10.2335 10.4162Z" fill="#FEE500"/>
<path d="M11.8709 9.94026C11.866 9.83215 11.9041 9.72651 11.9769 9.64641C12.0139 9.60909 12.0583 9.57993 12.1072 9.56084C12.1562 9.54176 12.2086 9.53313 12.2611 9.53556C12.3514 9.5345 12.4394 9.56332 12.5116 9.61747C12.5785 9.67398 12.623 9.75258 12.6369 9.83905C12.6416 9.87261 12.6416 9.9067 12.6369 9.94026V12.4742H13.9616C14.0535 12.473 14.1437 12.498 14.2218 12.5464C14.2568 12.568 14.287 12.5968 14.3102 12.6309C14.3335 12.6649 14.3493 12.7034 14.3567 12.7439C14.3567 12.7439 14.3567 12.7921 14.3567 12.8162C14.3589 12.8642 14.3496 12.912 14.3295 12.9556C14.3094 12.9992 14.279 13.0373 14.241 13.0667C14.1571 13.1275 14.0557 13.1596 13.952 13.1582H12.3237C12.22 13.1649 12.1169 13.1379 12.0299 13.0812C11.952 13.0229 11.9001 12.9364 11.8854 12.8403C11.8818 12.7874 11.8818 12.7342 11.8854 12.6813L11.8709 9.94026Z" fill="#FEE500"/>
<path d="M14.4435 9.93992C14.4406 9.83212 14.4784 9.7272 14.5495 9.64606C14.6217 9.58046 14.7143 9.54172 14.8117 9.53645C14.9091 9.53118 15.0053 9.55969 15.0842 9.61713C15.1526 9.67314 15.1987 9.75171 15.2143 9.83871C15.2166 9.87239 15.2166 9.90624 15.2143 9.93992V11.1201L16.4331 9.71346C16.48 9.66547 16.5299 9.62046 16.5824 9.57861C16.6319 9.54915 16.6886 9.53409 16.7462 9.53522C16.8304 9.53476 16.9127 9.55997 16.9822 9.60749C17.015 9.62954 17.043 9.658 17.0645 9.69111C17.086 9.72422 17.1006 9.76131 17.1075 9.80019C17.1094 9.80973 17.1094 9.81959 17.1075 9.82913C17.1051 9.84024 17.1051 9.8517 17.1075 9.86282C17.1073 9.91351 17.094 9.96332 17.0689 10.0074C17.0434 10.054 17.0127 10.0976 16.9774 10.1374L16.1777 11.0142L17.1412 12.5075V12.5557C17.1912 12.6247 17.2302 12.7012 17.2568 12.7822V12.8062C17.2624 12.862 17.2543 12.9184 17.2334 12.9704C17.2124 13.0224 17.1791 13.0686 17.1364 13.1049C17.056 13.1656 16.9577 13.1979 16.857 13.1965C16.7901 13.1992 16.7236 13.1842 16.6643 13.1531C16.6001 13.11 16.5473 13.0522 16.5101 12.9845L15.6141 11.5393L15.1854 11.9873V12.7918C15.1882 12.8995 15.1504 13.0045 15.0794 13.0856C15.0413 13.1228 14.996 13.1519 14.9463 13.1709C14.8966 13.19 14.8435 13.1987 14.7903 13.1965C14.7014 13.1983 14.6146 13.1694 14.5446 13.1145C14.4766 13.0603 14.4304 12.9833 14.4146 12.8978C14.4098 12.8626 14.4098 12.8269 14.4146 12.7918L14.4435 9.93992Z" fill="#FEE500"/>
</svg>
