<?xml version="1.0" encoding="UTF-8"?>
<svg version="1.1" xmlns="http://www.w3.org/2000/svg" width="32" height="32">
<path d="M0 0 C1.25554688 -0.00128906 2.51109375 -0.00257813 3.8046875 -0.00390625 C4.46178711 -0.00181152 5.11888672 0.0002832 5.79589844 0.00244141 C7.80411335 0.00779016 9.81210459 0.00249559 11.8203125 -0.00390625 C13.07585938 -0.00261719 14.33140625 -0.00132812 15.625 0 C16.78644531 0.00112793 17.94789062 0.00225586 19.14453125 0.00341797 C21.8125 0.1328125 21.8125 0.1328125 22.8125 1.1328125 C22.96936249 2.69229792 23.06326639 4.25823918 23.12890625 5.82421875 C23.18606812 7.09954468 23.18606812 7.09954468 23.24438477 8.40063477 C23.28748779 9.48787842 23.33059082 10.57512207 23.375 11.6953125 C23.519375 15.1396875 23.66375 18.5840625 23.8125 22.1328125 C13.2525 22.1328125 2.6925 22.1328125 -8.1875 22.1328125 C-8.043125 18.6884375 -7.89875 15.2440625 -7.75 11.6953125 C-7.70689697 10.60806885 -7.66379395 9.5208252 -7.61938477 8.40063477 C-7.58127686 7.55041748 -7.54316895 6.7002002 -7.50390625 5.82421875 C-7.46724854 4.94967041 -7.43059082 4.07512207 -7.39282227 3.17407227 C-6.95427732 -1.18582579 -3.71397038 0.0036068 0 0 Z M-4.1875 3.1328125 C-4.1875 7.0928125 -4.1875 11.0528125 -4.1875 15.1328125 C3.7325 15.1328125 11.6525 15.1328125 19.8125 15.1328125 C19.8125 11.1728125 19.8125 7.2128125 19.8125 3.1328125 C11.8925 3.1328125 3.9725 3.1328125 -4.1875 3.1328125 Z " fill="#000000" transform="translate(8.1875,4.8671875)"/>
</svg>
