<svg width="32" height="32" viewBox="0 0 32 32" fill="none" xmlns="http://www.w3.org/2000/svg">
<path d="M14.9167 3V6.25H17.0833V3H14.9167ZM11.5367 4.58167L9.99833 6.10917L12.3058 8.41667L13.8333 6.87833L11.5367 4.58167ZM20.4633 4.58167L18.1667 6.87833L19.6942 8.41667L22.0017 6.12L20.4633 4.58167ZM16 8.41667C15.4254 8.41667 14.8743 8.64494 14.4679 9.05127C14.0616 9.4576 13.8333 10.0087 13.8333 10.5833V11.6667H10.0417C9.32667 11.6667 8.72 12.1217 8.50333 12.75L6.25 19.25V27.9167C6.25 28.204 6.36414 28.4795 6.5673 28.6827C6.77047 28.8859 7.04602 29 7.33333 29H8.41667C8.70398 29 8.97953 28.8859 9.1827 28.6827C9.38586 28.4795 9.5 28.204 9.5 27.9167V26.8333H22.5V27.9167C22.5 28.204 22.6141 28.4795 22.8173 28.6827C23.0205 28.8859 23.296 29 23.5833 29H24.6667C24.954 29 25.2295 28.8859 25.4327 28.6827C25.6359 28.4795 25.75 28.204 25.75 27.9167V19.25L23.4967 12.75C23.28 12.1217 22.6733 11.6667 21.9583 11.6667H18.1667V10.5833C18.1667 10.0087 17.9384 9.4576 17.5321 9.05127C17.1257 8.64494 16.5746 8.41667 16 8.41667ZM10.0417 13.2917H21.9583L23.5833 18.1667H8.41667L10.0417 13.2917ZM10.0417 20.3333C10.4726 20.3333 10.886 20.5045 11.1907 20.8093C11.4955 21.114 11.6667 21.5274 11.6667 21.9583C11.6667 22.3893 11.4955 22.8026 11.1907 23.1074C10.886 23.4121 10.4726 23.5833 10.0417 23.5833C9.61069 23.5833 9.19736 23.4121 8.89262 23.1074C8.58787 22.8026 8.41667 22.3893 8.41667 21.9583C8.41667 21.5274 8.58787 21.114 8.89262 20.8093C9.19736 20.5045 9.61069 20.3333 10.0417 20.3333ZM21.9583 20.3333C22.3893 20.3333 22.8026 20.5045 23.1074 20.8093C23.4121 21.114 23.5833 21.5274 23.5833 21.9583C23.5833 22.3893 23.4121 22.8026 23.1074 23.1074C22.8026 23.4121 22.3893 23.5833 21.9583 23.5833C21.5274 23.5833 21.114 23.4121 20.8093 23.1074C20.5045 22.8026 20.3333 22.3893 20.3333 21.9583C20.3333 21.5274 20.5045 21.114 20.8093 20.8093C21.114 20.5045 21.5274 20.3333 21.9583 20.3333Z" fill="black"/>
</svg>
