<svg width="32" height="32" viewBox="0 0 32 32" fill="none" xmlns="http://www.w3.org/2000/svg">
<path d="M13.4036 4L10.8072 6.55556V9.11111H6.91257C5.41964 9.11111 4.47195 10.3889 4.31617 11.6667L3.01796 24.4444C2.86218 25.7222 3.71899 27 5.61437 27H26.3856C28.281 27 29.1378 25.7222 28.982 24.4444L27.6838 11.6667C27.528 10.3889 26.4635 9.11111 25.0874 9.11111H21.1928V6.55556L18.5964 4H13.4036ZM13.4036 6.55556H18.5964V9.11111H13.4036V6.55556ZM14.7018 12.9444H17.2982V16.7778H21.1928V19.3333H17.2982V23.1667H14.7018V19.3333H10.8072V16.7778H14.7018V12.9444Z" fill="black"/>
</svg>
