<svg width="29" height="25" viewBox="0 0 29 25" fill="none" xmlns="http://www.w3.org/2000/svg">
<path d="M14.5 0.503906C13.9752 0.503906 13.4556 0.607266 12.9708 0.808084C12.486 1.0089 12.0455 1.30324 11.6744 1.67431C11.3033 2.04537 11.009 2.48589 10.8082 2.9707C10.6074 3.45552 10.504 3.97514 10.504 4.49991C10.504 5.02467 10.6074 5.54429 10.8082 6.02911C11.009 6.51393 11.3033 6.95444 11.6744 7.3255C12.0455 7.69657 12.486 7.99091 12.9708 8.19173C13.4556 8.39255 13.9752 8.49591 14.5 8.49591C15.5598 8.49591 16.5762 8.0749 17.3256 7.3255C18.075 6.57611 18.496 5.55971 18.496 4.49991C18.496 3.4401 18.075 2.4237 17.3256 1.67431C16.5762 0.924912 15.5598 0.503906 14.5 0.503906ZM23.5 2.49991C22.7044 2.49991 21.9413 2.81598 21.3787 3.37859C20.8161 3.9412 20.5 4.70426 20.5 5.49991C20.5 6.29556 20.8161 7.05862 21.3787 7.62123C21.9413 8.18384 22.7044 8.49991 23.5 8.49991C24.2956 8.49991 25.0587 8.18384 25.6213 7.62123C26.1839 7.05862 26.5 6.29556 26.5 5.49991C26.5 4.70426 26.1839 3.9412 25.6213 3.37859C25.0587 2.81598 24.2956 2.49991 23.5 2.49991ZM5.5 2.49991C4.70435 2.49991 3.94129 2.81598 3.37868 3.37859C2.81607 3.9412 2.5 4.70426 2.5 5.49991C2.5 6.29556 2.81607 7.05862 3.37868 7.62123C3.94129 8.18384 4.70435 8.49991 5.5 8.49991C6.29565 8.49991 7.05871 8.18384 7.62132 7.62123C8.18393 7.05862 8.5 6.29556 8.5 5.49991C8.5 4.70426 8.18393 3.9412 7.62132 3.37859C7.05871 2.81598 6.29565 2.49991 5.5 2.49991ZM8.5 12.4859C8.5037 11.9579 8.71604 11.4528 9.09071 11.0807C9.46539 10.7087 9.97198 10.4999 10.5 10.4999H18.5C19.0304 10.4999 19.5391 10.7106 19.9142 11.0857C20.2893 11.4608 20.5 11.9695 20.5 12.4999V18.4999C20.5005 19.1294 20.402 19.7551 20.208 20.3539C19.7651 21.7113 18.8529 22.8664 17.635 23.6117C16.4172 24.357 14.9735 24.6438 13.5633 24.4205C12.153 24.1971 10.8686 23.4784 9.94056 22.3933C9.01256 21.3081 8.50181 19.9277 8.5 18.4999V12.4859ZM6.5 12.4999C6.5 11.7699 6.694 11.0879 7.036 10.4999H2.5C1.96957 10.4999 1.46086 10.7106 1.08579 11.0857C0.710714 11.4608 0.5 11.9695 0.5 12.4999V17.4999C0.499728 18.3185 0.700452 19.1247 1.08455 19.8476C1.46864 20.5705 2.02435 21.188 2.70288 21.646C3.38142 22.1039 4.16201 22.3883 4.97611 22.474C5.79022 22.5598 6.61293 22.4444 7.372 22.1379C6.79759 21.0106 6.49874 19.7631 6.5 18.4979V12.4999ZM22.5 12.4999V18.4999C22.5 19.8099 22.186 21.0459 21.628 22.1379C22.3871 22.4444 23.2098 22.5598 24.0239 22.474C24.838 22.3883 25.6186 22.1039 26.2971 21.646C26.9756 21.188 27.5314 20.5705 27.9155 19.8476C28.2995 19.1247 28.5003 18.3185 28.5 17.4999V12.4999C28.5 11.9695 28.2893 11.4608 27.9142 11.0857C27.5391 10.7106 27.0304 10.4999 26.5 10.4999H21.964C22.304 11.0879 22.5 11.7699 22.5 12.4999Z" fill="black"/>
</svg>
