<svg width="32" height="32" viewBox="0 0 32 32" fill="none" xmlns="http://www.w3.org/2000/svg">
<g clip-path="url(#clip0_566_1190)">
<path d="M15.7689 14.2222L15.3066 15.9999H16.7555L16.2844 14.2222H15.7689Z" fill="black"/>
<path d="M10.6134 15.9999H13.0046L13.4757 14.2222H10.1423L10.6134 15.9999Z" fill="black"/>
<path d="M11.8134 20.5334L12.5334 17.7778H11.0845L11.8134 20.5334Z" fill="black"/>
<path d="M19.0578 15.9999H21.4489L21.92 14.2222H18.5867L19.0578 15.9999Z" fill="black"/>
<path d="M20.2488 20.5334L20.9777 17.7778H19.5288L20.2488 20.5334Z" fill="black"/>
<path d="M16.0001 1.77783C13.1872 1.77783 10.4374 2.61195 8.09862 4.17471C5.75978 5.73747 3.93689 7.95867 2.86044 10.5574C1.78399 13.1562 1.50235 16.0158 2.05111 18.7747C2.59988 21.5335 3.95442 24.0677 5.94343 26.0567C7.93244 28.0457 10.4666 29.4002 13.2254 29.949C15.9843 30.4978 18.8439 30.2161 21.4427 29.1397C24.0414 28.0632 26.2626 26.2403 27.8254 23.9015C29.3882 21.5627 30.2223 18.8129 30.2223 16.0001C30.2223 12.2281 28.7239 8.61061 26.0567 5.94342C23.3895 3.27624 19.772 1.77783 16.0001 1.77783ZM25.7778 17.7778H23.2801L21.3334 25.1734C21.2716 25.4117 21.1325 25.6227 20.9378 25.7733C20.7432 25.9239 20.504 26.0057 20.2578 26.0057C20.0117 26.0057 19.7725 25.9239 19.5779 25.7733C19.3832 25.6227 19.2441 25.4117 19.1823 25.1734L17.2267 17.7778H14.8356L12.889 25.1734C12.8272 25.4117 12.688 25.6227 12.4934 25.7733C12.2987 25.9239 12.0595 26.0057 11.8134 26.0057C11.5673 26.0057 11.3281 25.9239 11.1334 25.7733C10.9387 25.6227 10.7996 25.4117 10.7378 25.1734L8.78228 17.7778H6.22228C5.98654 17.7778 5.76044 17.6842 5.59374 17.5175C5.42704 17.3508 5.33339 17.1247 5.33339 16.8889C5.33339 16.6532 5.42704 16.4271 5.59374 16.2604C5.76044 16.0937 5.98654 16.0001 6.22228 16.0001H8.31117L7.84006 14.2223H6.22228C5.98654 14.2223 5.76044 14.1286 5.59374 13.9619C5.42704 13.7952 5.33339 13.5691 5.33339 13.3334C5.33339 13.0976 5.42704 12.8715 5.59374 12.7048C5.76044 12.5381 5.98654 12.4445 6.22228 12.4445H7.37784L6.48895 9.17339C6.41351 8.88813 6.45448 8.58459 6.60284 8.32954C6.7512 8.07449 6.99481 7.88883 7.28006 7.81339C7.56532 7.73795 7.86886 7.77892 8.12391 7.92728C8.37895 8.07564 8.56462 8.31924 8.64006 8.6045L9.67117 12.4445H13.9378L14.9512 8.6045C15.0129 8.36623 15.1521 8.15522 15.3467 8.00459C15.5414 7.85395 15.7806 7.77222 16.0267 7.77222C16.2729 7.77222 16.512 7.85395 16.7067 8.00459C16.9014 8.15522 17.0405 8.36623 17.1023 8.6045L18.1156 12.4445H22.3823L23.3956 8.6045C23.4711 8.31924 23.6567 8.07564 23.9118 7.92728C24.1668 7.77892 24.4704 7.73795 24.7556 7.81339C25.0409 7.88883 25.2845 8.07449 25.4328 8.32954C25.5812 8.58459 25.6222 8.88813 25.5467 9.17339L24.6578 12.4445H25.7778C26.0136 12.4445 26.2397 12.5381 26.4064 12.7048C26.5731 12.8715 26.6667 13.0976 26.6667 13.3334C26.6667 13.5691 26.5731 13.7952 26.4064 13.9619C26.2397 14.1286 26.0136 14.2223 25.7778 14.2223H24.2134L23.7423 16.0001H25.7778C26.0136 16.0001 26.2397 16.0937 26.4064 16.2604C26.5731 16.4271 26.6667 16.6532 26.6667 16.8889C26.6667 17.1247 26.5731 17.3508 26.4064 17.5175C26.2397 17.6842 26.0136 17.7778 25.7778 17.7778Z" fill="black"/>
</g>
<defs>
<clipPath id="clip0_566_1190">
<rect width="32" height="32" fill="white"/>
</clipPath>
</defs>
</svg>
