<svg width="32" height="32" viewBox="0 0 32 32" fill="none" xmlns="http://www.w3.org/2000/svg">
<path d="M28.9466 27.0533L27.0533 28.9466C26.8034 29.195 26.4655 29.3344 26.1133 29.3344C25.761 29.3344 25.4231 29.195 25.1733 28.9466L9.33325 13.1333C8.8997 13.2591 8.45129 13.3263 7.99992 13.3333C7.15099 13.3327 6.31447 13.1294 5.5599 12.7404C4.80534 12.3515 4.15454 11.788 3.6616 11.0968C3.16866 10.4056 2.84784 9.6068 2.72579 8.76669C2.60375 7.92658 2.68402 7.06947 2.95992 6.26663L6.34658 9.65329L7.05325 8.94663L8.94658 7.05329L9.65325 6.34663L6.26658 2.95996C7.06943 2.68406 7.92654 2.60379 8.76665 2.72583C9.60676 2.84788 10.4056 3.16871 11.0968 3.66164C11.7879 4.15458 12.3514 4.80538 12.7404 5.55995C13.1294 6.31451 13.3326 7.15103 13.3333 7.99996C13.3263 8.45133 13.259 8.89974 13.1333 9.33329L28.9466 25.1733C29.1949 25.4231 29.3343 25.761 29.3343 26.1133C29.3343 26.4655 29.1949 26.8035 28.9466 27.0533ZM3.05325 25.1733C2.80492 25.4231 2.66553 25.761 2.66553 26.1133C2.66553 26.4655 2.80492 26.8035 3.05325 27.0533L4.94658 28.9466C5.1964 29.195 5.53434 29.3344 5.88658 29.3344C6.23883 29.3344 6.57677 29.195 6.82658 28.9466L14.1199 21.6666L10.3466 17.8933M26.6666 2.66663L21.3333 5.33329V7.99996L18.4399 10.8933L21.1066 13.56L23.9999 10.6666H26.6666L29.3333 5.33329L26.6666 2.66663Z" fill="black"/>
</svg>
