<svg width="32" height="32" viewBox="0 0 32 32" fill="none" xmlns="http://www.w3.org/2000/svg">
<path fill-rule="evenodd" clip-rule="evenodd" d="M3.30489 27.1223C3.84608 28.3741 4.76523 29 6.06234 29H25.9379C27.2359 29 28.1551 28.3741 28.6953 27.1223C29.2355 25.8704 29.0574 24.7308 28.1609 23.7033L21.0051 14.5558V5.88936H23.4144C23.5999 5.89457 23.7844 5.86089 23.956 5.79049C24.1277 5.72009 24.2827 5.61452 24.4111 5.48059C24.5418 5.34242 24.6439 5.17981 24.7115 5.00208C24.7792 4.82436 24.8111 4.63502 24.8054 4.44494C24.8111 4.25486 24.7792 4.06552 24.7115 3.8878C24.6439 3.71007 24.5418 3.54746 24.4111 3.40929C24.2827 3.27536 24.1277 3.16979 23.956 3.09939C23.7844 3.02899 23.5999 2.99531 23.4144 3.00052H8.58578C8.40032 2.99531 8.21582 3.02899 8.04417 3.09939C7.87251 3.16979 7.7175 3.27536 7.58911 3.40929C7.4587 3.54758 7.35687 3.71024 7.28945 3.88796C7.22203 4.06568 7.19035 4.25496 7.19622 4.44494C7.19622 4.86286 7.32767 5.20807 7.59056 5.48059C7.71894 5.61452 7.87395 5.72009 8.04561 5.79049C8.21727 5.86089 8.40176 5.89457 8.58722 5.88936H10.9966V14.5558L3.83789 23.7033C2.94234 24.7298 2.76467 25.8695 3.30489 27.1223ZM9.74278 20.7336H22.2574L18.2245 15.6146V5.88936H13.7757V15.6146L9.74278 20.7336Z" fill="black"/>
<path d="M15 25C15 26.1046 14.1046 27 13 27C11.8954 27 11 26.1046 11 25C11 23.8954 11.8954 23 13 23C14.1046 23 15 23.8954 15 25Z" fill="white"/>
<path d="M18 23C18 23.5523 17.5523 24 17 24C16.4477 24 16 23.5523 16 23C16 22.4477 16.4477 22 17 22C17.5523 22 18 22.4477 18 23Z" fill="white"/>
</svg>
