<svg width="32" height="32" viewBox="0 0 32 32" fill="none" xmlns="http://www.w3.org/2000/svg">
<path d="M27.299 22.5C28.0618 22.5 28.7048 22.76 29.2281 23.28C29.7514 23.8 30.0086 24.4067 29.9998 25.1L19.3166 29L10.0037 26.4V14.7H12.598L22.2701 18.197C22.9619 18.4657 23.3078 18.951 23.3078 19.653C23.3078 20.0603 23.157 20.4157 22.8555 20.719C22.5539 21.0223 22.1725 21.1827 21.7113 21.2H17.9862L15.658 20.329L15.2189 21.551L17.9862 22.5H27.299ZM21.9774 4.599C22.9176 3.533 24.1149 3 25.5695 3C26.7758 3 27.7957 3.43333 28.6295 4.3C29.4632 5.16667 29.9066 6.16333 29.9599 7.29C29.9599 8.18267 29.5164 9.24867 28.6295 10.488C27.7425 11.7273 26.8689 12.763 26.0086 13.595C25.1482 14.427 23.8045 15.662 21.9774 17.3C20.1326 15.662 18.7756 14.427 17.9064 13.595C17.0372 12.763 16.1635 11.7273 15.2855 10.488C14.4074 9.24867 13.9772 8.18267 13.995 7.29C13.995 6.11133 14.4251 5.11467 15.2855 4.3C16.1458 3.48533 17.1835 3.052 18.3986 3C19.8177 3 21.0106 3.533 21.9774 4.599ZM2 14.7H7.34292V29H2V14.7Z" fill="black"/>
</svg>
